<svg width="1258" height="395" viewBox="0 0 899 282" fill="none" xmlns="http://www.w3.org/2000/svg"><g clip-path="url('#clip0_4_9')"><path d="M112.455 100.623v30.122h72.614c-1.927 16.664-7.711 29.482-16.707 37.814-10.282 10.255-26.99 21.791-55.907 21.791-44.34 0-79.04-35.891-79.04-80.114 0-44.222 34.058-80.113 79.04-80.113 23.777 0 41.769 9.613 54.622 21.79l21.205-21.15C170.29 13.46 145.871 0 112.455 0 51.408 0 0 49.35 0 110.236c0 60.887 51.408 110.237 112.455 110.237 32.773 0 57.835-10.896 77.113-30.764 19.92-19.868 26.346-48.068 26.346-70.5 0-7.05-.642-13.459-1.285-18.586H112.455Z" fill="#4285F4"/><path d="M305.879 75.627c-39.199 0-71.972 30.123-71.972 71.141s32.13 71.141 71.972 71.141c39.841 0 71.971-29.482 71.971-70.5 0-41.659-32.13-71.782-71.971-71.782Zm0 114.723c-21.849 0-40.484-17.945-40.484-42.941 0-25.636 18.635-42.941 40.484-42.941 21.848 0 40.483 17.305 40.483 42.941 0 24.996-18.635 42.941-40.483 42.941Z" fill="#EA4335"/><path d="M657.382 91.65h-1.285c-7.069-8.332-20.564-16.023-37.914-16.023-35.986 0-66.831 30.764-66.831 71.141 0 39.737 30.845 71.141 66.831 71.141 17.35 0 30.845-7.691 37.914-16.023h1.285v10.255c0 26.918-14.78 41.659-37.914 41.659-19.278 0-30.845-13.459-35.985-25.636l-26.99 11.536c7.711 18.586 28.917 42.3 63.618 42.3 36.628 0 68.116-21.791 68.116-74.345V79.473h-29.56V91.65h-1.285Zm-35.986 98.7c-21.848 0-37.913-18.586-37.913-42.941 0-24.995 16.707-42.941 37.913-42.941 21.206 0 37.914 18.587 37.914 43.582.642 24.355-16.066 42.3-37.914 42.3Z" fill="#4285F4"/><path d="M465.886 75.627c-39.198 0-71.971 30.123-71.971 71.141s32.13 71.141 71.971 71.141c39.842 0 71.972-29.482 71.972-70.5 0-41.659-32.13-71.782-71.972-71.782Zm0 114.723c-21.848 0-40.484-17.945-40.484-42.941 0-25.636 18.636-42.941 40.484-42.941 21.849 0 40.484 17.305 40.484 42.941 0 24.996-18.635 42.941-40.484 42.941Z" fill="#FBBC05"/><path d="M712.003 3.205h30.845V218.55h-30.845V3.205Z" fill="#34A853"/><path d="M837.953 190.35c-16.065 0-26.989-7.05-34.701-21.791L899 129.464l-3.213-8.332c-5.783-16.023-24.419-45.505-61.047-45.505s-67.473 28.841-67.473 71.141c0 39.737 30.202 71.141 70.686 71.141 32.773 0 51.408-19.868 59.762-31.404l-24.419-16.023c-8.354 12.177-19.278 19.868-35.343 19.868Zm-1.928-87.805c12.852 0 23.776 6.41 26.989 15.382l-64.26 26.918c-.642-29.481 21.206-42.3 37.271-42.3Z" fill="#EA4335"/></g><defs><clipPath id="clip0_4_9"><path fill="#fff" d="M0 0h1258v395H0z"/></clipPath></defs></svg>